# Blender v2.79 (sub 0) OBJ File: ''
# www.blender.org
mtllib CornerBox.mtl
o Cube
v 2.303841 -0.878753 0.071451
v -2.090959 -0.878753 0.175986
v -2.095922 -0.878753 -0.032704
v 2.298878 -0.878753 -0.137237
v 2.303840 1.069064 0.071452
v -2.090960 1.069064 0.175984
v -2.095922 1.069064 -0.032704
v 2.298878 1.069064 -0.137238
v -1.999740 1.006511 0.173815
v -1.999740 1.006511 -0.034992
v -1.999740 0.898940 -0.034992
v -1.999740 0.955745 0.173815
v -1.999740 -0.742705 -0.034992
v -1.999740 -0.742705 0.173816
v 2.185087 1.006511 -0.134531
v 2.185086 1.006511 0.074277
v 2.185087 -0.742705 -0.134531
v 2.185087 -0.742705 0.074276
v 2.112201 -0.742705 -0.132797
v 2.117164 -0.742705 0.075891
vt 0.000000 0.000000
vt 1.000000 0.000000
vt 1.000000 1.000000
vt 0.000000 1.000000
vt 0.000000 0.000000
vt 1.000000 0.000000
vt 1.000000 1.000000
vt 0.000000 1.000000
vt 0.500000 1.000000
vt 0.890916 0.811745
vt 0.987464 0.388739
vt 0.935515 0.323598
vt 0.949233 0.352210
vt 0.832829 0.786435
vt 0.416412 0.949736
vt 0.346376 0.926019
vt 0.000000 0.000000
vt 1.000000 0.000000
vt 0.000000 1.000000
vt 0.500000 1.000000
vt 0.933013 0.750000
vt 0.933013 0.648761
vt 0.523200 0.927307
vt 0.066987 0.553508
vt 0.066987 0.750000
vt 1.000000 0.000000
vt 1.000000 1.000000
vt 0.000000 1.000000
vt 0.500000 1.000000
vt 0.653624 0.926019
vt 0.578544 0.951456
vt 0.165912 0.787513
vt 0.049286 0.361201
vt 0.067311 0.320054
vt 0.012536 0.388740
vt 0.109084 0.811745
vt 0.237155 0.848246
vt 0.139428 0.266288
vt 0.583152 0.048008
vt 0.500000 0.000000
vt 0.066987 0.250000
vt 0.066987 0.750000
vt 0.000000 0.000000
vt 0.000000 0.000000
vt 0.000000 0.000000
vt 0.000000 0.000000
vt 0.000000 0.000000
vt 0.000000 0.000000
vt 0.000000 0.000000
vt 0.000000 0.000000
vt 0.000000 0.000000
vt 0.000000 0.000000
vt 0.000000 0.000000
vt 0.000000 0.000000
vn 0.0000 -1.0000 0.0000
vn 0.0000 1.0000 0.0000
vn 0.0238 -0.0000 0.9997
vn -0.9997 -0.0000 0.0238
vn -0.0238 -0.0000 -0.9997
vn 0.9997 0.0000 -0.0238
vn -1.0000 0.0000 -0.0000
vn 1.0000 -0.0000 0.0000
usemtl Material
s off
f 1/1/1 2/2/1 3/3/1 4/4/1
f 5/5/2 8/6/2 7/7/2 6/8/2
f 1/9/3 5/10/3 6/11/3 12/12/3 9/13/3 16/14/3 18/15/3 20/16/3
f 2/17/4 6/18/4 7/7/4 3/19/4
f 3/20/5 7/21/5 11/22/5 13/23/5 19/24/5 4/25/5
f 5/5/6 1/26/6 4/27/6 8/28/6
f 4/29/5 19/30/5 17/31/5 15/32/5 10/33/5 11/34/5 7/35/5 8/36/5
f 20/37/3 14/38/3 12/39/3 6/40/3 2/41/3 1/42/3
usemtl Material_NONE
f 17/43/7 18/44/7 16/45/7 15/46/7
f 14/47/8 13/48/8 11/49/8 10/50/8 9/51/8 12/52/8
f 13/48/2 14/47/2 20/53/2 18/44/2 17/43/2 19/54/2
f 15/46/1 16/45/1 9/51/1 10/50/1
