# Blender v2.79 (sub 0) OBJ File: 'Heart.blend'
# www.blender.org
mtllib Heart.mtl
o Cube
v 0.000000 1.492780 -0.878412
v 1.414214 0.083506 -0.996507
v -0.000000 -1.325768 -1.114602
v -1.414214 0.083506 -0.996507
v 0.000001 1.325768 1.114602
v 1.414214 -0.083507 0.996507
v -0.000001 -1.492780 0.878412
v -1.414214 -0.083506 0.996507
v 0.707107 1.784650 -0.853954
v 0.707107 1.617639 1.139061
v 0.902197 1.765503 -0.855558
v 0.902197 1.598491 1.137456
v 1.089791 1.708796 -0.860310
v 1.089791 1.541784 1.132704
v 1.262677 1.616709 -0.868027
v 1.262677 1.449697 1.124987
v 1.414214 1.492780 -0.878412
v 1.414214 1.325768 1.114602
v 1.538577 1.341773 -0.891066
v 1.538577 1.174761 1.101948
v 1.630987 1.169490 -0.905503
v 1.630987 1.002478 1.087511
v 1.687892 0.982552 -0.921169
v 1.687892 0.815540 1.071846
v 1.707107 0.788143 -0.937460
v 1.707107 0.621131 1.055555
v 1.687892 0.593734 -0.953751
v 1.687892 0.426722 1.039264
v 1.630987 0.406796 -0.969416
v 1.630987 0.239785 1.023599
v 1.538577 0.234513 -0.983853
v 1.538577 0.067502 1.009161
v 1.414214 0.083506 -0.996507
v 1.414214 -0.083506 0.996507
v 1.262677 -0.040423 -1.006892
v 1.262677 -0.207434 0.986122
v 1.089790 -0.132510 -1.014609
v 1.089790 -0.299522 0.978405
v 0.902197 -0.189217 -1.019361
v 0.902197 -0.356229 0.973654
v 0.707107 -0.208364 -1.020966
v 0.707107 -0.375376 0.972049
v 0.512016 -0.189217 -1.019361
v 0.512016 -0.356228 0.973654
v 0.324423 -0.132510 -1.014609
v 0.324423 -0.299521 0.978406
v 0.151536 -0.040422 -1.006892
v 0.151536 -0.207434 0.986122
v -0.000000 0.083506 -0.996507
v -0.000000 -0.083505 0.996507
v -0.124363 0.234514 -0.983853
v -0.124363 0.067502 1.009161
v -0.216773 0.406797 -0.969416
v -0.216773 0.239785 1.023599
v -0.273678 0.593735 -0.953751
v -0.273678 0.426723 1.039264
v -0.292893 0.788144 -0.937460
v -0.292893 0.621132 1.055555
v -0.273678 0.982553 -0.921168
v -0.273678 0.815541 1.071846
v -0.216772 1.169491 -0.905503
v -0.216772 1.002479 1.087511
v -0.124362 1.341774 -0.891066
v -0.124362 1.174762 1.101948
v 0.000001 1.492781 -0.878412
v 0.000001 1.325769 1.114602
v 0.151538 1.616709 -0.868027
v 0.151538 1.449698 1.124987
v 0.324425 1.708797 -0.860310
v 0.324425 1.541785 1.132704
v 0.512018 1.765503 -0.855558
v 0.512018 1.598491 1.137456
v -0.707107 1.784650 -0.853954
v -0.707107 1.617639 1.139061
v -0.512017 1.765503 -0.855558
v -0.512017 1.598491 1.137456
v -0.324424 1.708796 -0.860310
v -0.324424 1.541784 1.132704
v -0.151537 1.616709 -0.868027
v -0.151537 1.449697 1.124987
v -0.000000 1.492780 -0.878412
v -0.000000 1.325768 1.114602
v 0.124363 1.341773 -0.891066
v 0.124363 1.174761 1.101948
v 0.216773 1.169490 -0.905503
v 0.216773 1.002478 1.087511
v 0.273678 0.982552 -0.921169
v 0.273678 0.815540 1.071846
v 0.292893 0.788143 -0.937460
v 0.292893 0.621131 1.055555
v 0.273678 0.593734 -0.953751
v 0.273678 0.426722 1.039264
v 0.216773 0.406796 -0.969416
v 0.216773 0.239785 1.023599
v 0.124363 0.234513 -0.983853
v 0.124363 0.067502 1.009161
v -0.000000 0.083506 -0.996507
v -0.000000 -0.083506 0.996507
v -0.151537 -0.040423 -1.006892
v -0.151537 -0.207434 0.986122
v -0.324424 -0.132510 -1.014609
v -0.324424 -0.299521 0.978405
v -0.512017 -0.189217 -1.019361
v -0.512017 -0.356228 0.973654
v -0.707107 -0.208364 -1.020966
v -0.707107 -0.375376 0.972049
v -0.902198 -0.189217 -1.019361
v -0.902198 -0.356228 0.973654
v -1.089791 -0.132509 -1.014609
v -1.089791 -0.299521 0.978406
v -1.262678 -0.040422 -1.006892
v -1.262678 -0.207434 0.986122
v -1.414214 0.083506 -0.996507
v -1.414214 -0.083505 0.996507
v -1.538577 0.234514 -0.983853
v -1.538577 0.067502 1.009161
v -1.630987 0.406797 -0.969416
v -1.630987 0.239785 1.023599
v -1.687893 0.593735 -0.953751
v -1.687893 0.426723 1.039264
v -1.707107 0.788144 -0.937460
v -1.707107 0.621132 1.055555
v -1.687892 0.982553 -0.921168
v -1.687892 0.815541 1.071846
v -1.630986 1.169491 -0.905503
v -1.630986 1.002479 1.087511
v -1.538576 1.341774 -0.891066
v -1.538576 1.174762 1.101948
v -1.414213 1.492781 -0.878412
v -1.414213 1.325769 1.114602
v -1.262676 1.616710 -0.868027
v -1.262676 1.449698 1.124987
v -1.089789 1.708797 -0.860310
v -1.089789 1.541785 1.132704
v -0.902196 1.765503 -0.855558
v -0.902196 1.598491 1.137456
vt 0.000000 0.000000
vt 1.000000 0.000000
vt 1.000000 1.000000
vt 0.000000 1.000000
vt 0.000000 0.000000
vt 1.000000 0.000000
vt 1.000000 1.000000
vt 0.000000 1.000000
vt 1.000000 0.000000
vt 1.000000 1.000000
vt 0.000000 1.000000
vt 0.000000 0.000000
vt 1.000000 0.000000
vt 0.000000 1.000000
vt 0.000000 0.000000
vt 1.000000 0.000000
vt 1.000000 1.000000
vt 1.000000 0.000000
vt 1.000000 1.000000
vt 0.000000 1.000000
vt 0.787451 0.686890
vt 0.963840 -0.003733
vt 1.001637 1.004204
vt 0.016799 0.899677
vt 0.000000 0.000000
vt 0.287682 0.645826
vt 0.000000 0.000000
vt 0.035698 0.533833
vt 0.000000 0.000000
vt 0.000000 0.000000
vt 0.000000 0.000000
vt 0.000000 0.000000
vt 0.000000 0.000000
vt 0.000000 0.000000
vt 0.000000 0.000000
vt 0.000000 0.000000
vt 0.000000 0.000000
vt 0.000000 0.000000
vt 0.000000 0.000000
vt 0.000000 0.000000
vt 0.000000 0.000000
vt 0.000000 0.000000
vt 0.000000 0.000000
vt 0.000000 0.000000
vt 0.000000 0.000000
vt 0.000000 0.000000
vt 0.000000 0.000000
vt 0.000000 0.000000
vt 0.000000 0.000000
vt 0.000000 0.000000
vt 0.000000 0.000000
vt 0.000000 0.000000
vt 0.000000 0.000000
vt 0.000000 0.000000
vt 0.000000 0.000000
vt 0.000000 0.000000
vt 0.000000 0.000000
vt 0.000000 0.000000
vt 0.000000 0.000000
vt 0.000000 0.000000
vt 0.000000 0.000000
vt 0.000000 0.000000
vt 0.000000 0.000000
vt 0.000000 0.000000
vt 0.000000 0.000000
vt 0.000000 0.000000
vt 0.000000 0.000000
vt 0.000000 0.000000
vt 0.000000 0.000000
vt 0.000000 0.000000
vt 0.000000 0.000000
vt 0.000000 0.000000
vt 0.000000 0.000000
vt 0.000000 0.000000
vt 0.000000 0.000000
vt 0.000000 0.000000
vt 0.000000 0.000000
vt 0.000000 0.000000
vt 0.000000 0.000000
vt 0.000000 0.000000
vt 0.000000 0.000000
vt 0.000000 0.000000
vt 0.460541 0.111682
vt 0.499710 0.181315
vt 0.530485 0.263196
vt 0.551683 0.354177
vt 0.562490 0.450762
vt 0.562490 0.549239
vt 0.551683 0.645823
vt 0.530485 0.736804
vt 0.499710 0.818684
vt 0.460542 0.888317
vt 0.414484 0.943028
vt 0.363307 0.980713
vt 0.308978 0.999925
vt 0.253585 0.999925
vt 0.199256 0.980713
vt 0.148079 0.943027
vt 0.102022 0.888316
vt 0.062854 0.818683
vt 0.032079 0.736803
vt 0.010881 0.645822
vt 0.000075 0.549238
vt 0.000075 0.450761
vt 0.010882 0.354177
vt 0.032080 0.263196
vt 0.062855 0.181316
vt 0.102024 0.111683
vt 0.148081 0.056973
vt 0.199258 0.019287
vt 0.253586 0.000075
vt 0.308978 0.000075
vt 0.363307 0.019286
vt 0.414483 0.056971
vt 0.732854 0.018666
vt 0.621561 0.190388
vt 0.000000 0.000000
vt 0.000000 0.000000
vt 0.000000 0.000000
vt 0.000000 0.000000
vt 0.000000 0.000000
vt 0.000000 0.000000
vt 0.000000 0.000000
vt 0.000000 0.000000
vt 0.000000 0.000000
vt 0.000000 0.000000
vt 0.000000 0.000000
vt 0.000000 0.000000
vt 0.000000 0.000000
vt 0.000000 0.000000
vt 0.000000 0.000000
vt 0.000000 0.000000
vt 0.000000 0.000000
vt 0.000000 0.000000
vt 0.000000 0.000000
vt 0.000000 0.000000
vt 0.000000 0.000000
vt 0.000000 0.000000
vt 0.000000 0.000000
vt 0.000000 0.000000
vt 0.000000 0.000000
vt 0.000000 0.000000
vt 0.000000 0.000000
vt 0.000000 0.000000
vt 0.000000 0.000000
vt 0.000000 0.000000
vt 0.000000 0.000000
vt 0.000000 0.000000
vt 0.000000 0.000000
vt 0.000000 0.000000
vt 0.000000 0.000000
vt 0.000000 0.000000
vt 0.000000 0.000000
vt 0.000000 0.000000
vt 0.000000 0.000000
vt 0.000000 0.000000
vt 0.000000 0.000000
vt 0.000000 0.000000
vt 0.000000 0.000000
vt 0.000000 0.000000
vt 0.000000 0.000000
vt 0.000000 0.000000
vt 0.000000 0.000000
vt 0.000000 0.000000
vt 0.000000 0.000000
vt 0.000000 0.000000
vt 0.000000 0.000000
vt 0.000000 0.000000
vt 0.000000 0.000000
vt 0.000000 0.000000
vt 0.000000 0.000000
vt 0.000000 0.000000
vt 0.000000 0.000000
vt 0.000000 0.000000
vt 0.000000 0.000000
vt 0.000000 0.000000
vt 0.000000 0.000000
vt 0.000000 0.000000
vt 0.530487 0.736803
vt 0.499712 0.818683
vt 0.460543 0.888317
vt 0.414486 0.943027
vt 0.363309 0.980713
vt 0.308979 0.999925
vt 0.253586 0.999925
vt 0.199257 0.980713
vt 0.148080 0.943027
vt 0.102023 0.888316
vt 0.062854 0.818682
vt 0.032079 0.736801
vt 0.010881 0.645820
vt 0.000075 0.549236
vt 0.000075 0.450758
vt 0.010882 0.354174
vt 0.032081 0.263193
vt 0.062855 0.181314
vt 0.102024 0.111681
vt 0.148082 0.056971
vt 0.199259 0.019286
vt 0.253588 0.000075
vt 0.308981 0.000075
vt 0.363310 0.019288
vt 0.414486 0.056974
vt 0.460544 0.111684
vt 0.499712 0.181318
vt 0.530487 0.263198
vt 0.551685 0.354178
vt 0.562492 0.450761
vt 0.562492 0.549238
vt 0.551685 0.645822
vt 0.000000 0.000000
vt 0.000000 0.000000
vn -0.0000 0.0835 -0.9965
vn 0.0000 -0.0835 0.9965
vn 0.7071 0.7046 0.0590
vn 0.7071 -0.7046 -0.0590
vn -0.7071 -0.7046 -0.0590
vn -0.7071 0.7046 0.0590
vn 0.0980 0.9917 0.0831
vn 0.2903 0.9536 0.0799
vn 0.4714 0.8788 0.0736
vn 0.6344 0.7703 0.0646
vn 0.7730 0.6322 0.0530
vn 0.8819 0.4698 0.0394
vn 0.9569 0.2893 0.0242
vn 0.9952 0.0977 0.0082
vn 0.9952 -0.0977 -0.0082
vn 0.9569 -0.2893 -0.0242
vn 0.8819 -0.4697 -0.0394
vn 0.7730 -0.6322 -0.0530
vn 0.6344 -0.7703 -0.0646
vn 0.4714 -0.8788 -0.0736
vn 0.2903 -0.9536 -0.0799
vn 0.0980 -0.9917 -0.0831
vn -0.0980 -0.9917 -0.0831
vn -0.2903 -0.9536 -0.0799
vn -0.4714 -0.8788 -0.0736
vn -0.6344 -0.7703 -0.0646
vn -0.7730 -0.6322 -0.0530
vn -0.8819 -0.4697 -0.0394
vn -0.9569 -0.2893 -0.0242
vn -0.9952 -0.0977 -0.0082
vn -0.9952 0.0977 0.0082
vn -0.9569 0.2893 0.0242
vn -0.8819 0.4698 0.0394
vn -0.7730 0.6322 0.0530
vn -0.6344 0.7703 0.0646
vn -0.4714 0.8788 0.0736
vn -0.2903 0.9536 0.0799
vn -0.0980 0.9917 0.0831
usemtl Material
s off
f 1/1/1 2/2/1 3/3/1 4/4/1
f 5/5/2 8/6/2 7/7/2 6/8/2
f 1/1/3 5/9/3 6/10/3 2/11/3
f 2/12/4 6/13/4 7/7/4 3/14/4
f 3/15/5 7/16/5 8/17/5 4/4/5
f 5/5/6 1/18/6 4/19/6 8/20/6
f 9/21/7 10/22/7 12/23/7 11/24/7
f 11/24/8 12/23/8 14/25/8 13/26/8
f 13/26/9 14/25/9 16/27/9 15/28/9
f 15/28/10 16/27/10 18/29/10 17/30/10
f 17/30/11 18/29/11 20/31/11 19/32/11
f 19/32/12 20/31/12 22/33/12 21/34/12
f 21/34/13 22/33/13 24/35/13 23/36/13
f 23/36/14 24/35/14 26/37/14 25/38/14
f 25/38/15 26/37/15 28/39/15 27/40/15
f 27/40/16 28/39/16 30/41/16 29/42/16
f 29/42/17 30/41/17 32/43/17 31/44/17
f 31/44/18 32/43/18 34/45/18 33/46/18
f 33/46/19 34/45/19 36/47/19 35/48/19
f 35/48/20 36/47/20 38/49/20 37/50/20
f 37/50/21 38/49/21 40/51/21 39/52/21
f 39/52/22 40/51/22 42/53/22 41/54/22
f 41/54/23 42/53/23 44/55/23 43/56/23
f 43/56/24 44/55/24 46/57/24 45/58/24
f 45/58/25 46/57/25 48/59/25 47/60/25
f 47/60/26 48/59/26 50/61/26 49/62/26
f 49/62/27 50/61/27 52/63/27 51/64/27
f 51/64/28 52/63/28 54/65/28 53/66/28
f 53/66/29 54/65/29 56/67/29 55/68/29
f 55/68/30 56/67/30 58/69/30 57/70/30
f 57/70/31 58/69/31 60/71/31 59/72/31
f 59/72/32 60/71/32 62/73/32 61/74/32
f 61/74/33 62/73/33 64/75/33 63/76/33
f 63/76/34 64/75/34 66/77/34 65/78/34
f 65/78/35 66/77/35 68/79/35 67/80/35
f 67/80/36 68/79/36 70/81/36 69/82/36
f 12/83/2 10/84/2 72/85/2 70/86/2 68/87/2 66/88/2 64/89/2 62/90/2 60/91/2 58/92/2 56/93/2 54/94/2 52/95/2 50/96/2 48/97/2 46/98/2 44/99/2 42/100/2 40/101/2 38/102/2 36/103/2 34/104/2 32/105/2 30/106/2 28/107/2 26/108/2 24/109/2 22/110/2 20/111/2 18/112/2 16/113/2 14/114/2
f 69/82/37 70/81/37 72/115/37 71/116/37
f 71/116/38 72/115/38 10/22/38 9/21/38
f 9/21/1 11/24/1 13/26/1 15/28/1 17/30/1 19/32/1 21/34/1 23/36/1 25/38/1 27/40/1 29/42/1 31/44/1 33/46/1 35/48/1 37/50/1 39/52/1 41/54/1 43/56/1 45/58/1 47/60/1 49/62/1 51/64/1 53/66/1 55/68/1 57/70/1 59/72/1 61/74/1 63/76/1 65/78/1 67/80/1 69/82/1 71/116/1
f 73/117/7 74/118/7 76/119/7 75/120/7
f 75/120/8 76/119/8 78/121/8 77/122/8
f 77/122/9 78/121/9 80/123/9 79/124/9
f 79/124/10 80/123/10 82/125/10 81/126/10
f 81/126/11 82/125/11 84/127/11 83/128/11
f 83/128/12 84/127/12 86/129/12 85/130/12
f 85/130/13 86/129/13 88/131/13 87/132/13
f 87/132/14 88/131/14 90/133/14 89/134/14
f 89/134/15 90/133/15 92/135/15 91/136/15
f 91/136/16 92/135/16 94/137/16 93/138/16
f 93/138/17 94/137/17 96/139/17 95/140/17
f 95/140/18 96/139/18 98/141/18 97/142/18
f 97/142/19 98/141/19 100/143/19 99/144/19
f 99/144/20 100/143/20 102/145/20 101/146/20
f 101/146/21 102/145/21 104/147/21 103/148/21
f 103/148/22 104/147/22 106/149/22 105/150/22
f 105/150/23 106/149/23 108/151/23 107/152/23
f 107/152/24 108/151/24 110/153/24 109/154/24
f 109/154/25 110/153/25 112/155/25 111/156/25
f 111/156/26 112/155/26 114/157/26 113/158/26
f 113/158/27 114/157/27 116/159/27 115/160/27
f 115/160/28 116/159/28 118/161/28 117/162/28
f 117/162/29 118/161/29 120/163/29 119/164/29
f 119/164/30 120/163/30 122/165/30 121/166/30
f 121/166/31 122/165/31 124/167/31 123/168/31
f 123/168/32 124/167/32 126/169/32 125/170/32
f 125/170/33 126/169/33 128/171/33 127/172/33
f 127/172/34 128/171/34 130/173/34 129/174/34
f 129/174/35 130/173/35 132/175/35 131/176/35
f 131/176/36 132/175/36 134/177/36 133/178/36
f 76/179/2 74/180/2 136/181/2 134/182/2 132/183/2 130/184/2 128/185/2 126/186/2 124/187/2 122/188/2 120/189/2 118/190/2 116/191/2 114/192/2 112/193/2 110/194/2 108/195/2 106/196/2 104/197/2 102/198/2 100/199/2 98/200/2 96/201/2 94/202/2 92/203/2 90/204/2 88/205/2 86/206/2 84/207/2 82/208/2 80/209/2 78/210/2
f 133/178/37 134/177/37 136/211/37 135/212/37
f 135/212/38 136/211/38 74/118/38 73/117/38
f 73/117/1 75/120/1 77/122/1 79/124/1 81/126/1 83/128/1 85/130/1 87/132/1 89/134/1 91/136/1 93/138/1 95/140/1 97/142/1 99/144/1 101/146/1 103/148/1 105/150/1 107/152/1 109/154/1 111/156/1 113/158/1 115/160/1 117/162/1 119/164/1 121/166/1 123/168/1 125/170/1 127/172/1 129/174/1 131/176/1 133/178/1 135/212/1
