# Blender v2.79 (sub 0) OBJ File: ''
# www.blender.org
mtllib 2.mtl
o Text
v 1.051298 0.451888 0.017506
v -0.217856 0.451888 0.017506
v -0.042305 0.663149 0.025691
v 0.115146 0.858381 0.033254
v 0.255037 1.039374 0.040266
v 0.377910 1.207915 0.046795
v 0.484303 1.365794 0.052911
v 0.574757 1.514798 0.058684
v 0.649813 1.656716 0.064182
v 0.710011 1.793337 0.069475
v 0.755891 1.926448 0.074631
v 0.787994 2.057838 0.079721
v 0.806859 2.189296 0.084814
v 0.813028 2.322609 0.089979
v 0.804549 2.471585 0.095750
v 0.779642 2.611856 0.101184
v 0.739100 2.742610 0.106250
v 0.683717 2.863040 0.110915
v 0.614286 2.972334 0.115149
v 0.531601 3.069683 0.118921
v 0.436456 3.154277 0.122198
v 0.329643 3.225307 0.124950
v 0.211957 3.281961 0.127144
v 0.084191 3.323432 0.128751
v -0.052861 3.348908 0.129738
v -0.198406 3.357579 0.130074
v -0.264885 3.355448 0.129991
v -0.330688 3.349031 0.129743
v -0.395951 3.338295 0.129327
v -0.460809 3.323207 0.128742
v -0.525397 3.303731 0.127988
v -0.589850 3.279835 0.127062
v -0.654302 3.251485 0.125964
v -0.718890 3.218648 0.124692
v -0.783748 3.181288 0.123244
v -0.849011 3.139374 0.121621
v -0.914815 3.092870 0.119819
v -0.981294 3.041744 0.117838
v -0.981294 2.444085 0.094685
v -0.914928 2.524331 0.097794
v -0.849507 2.595299 0.100543
v -0.784964 2.657426 0.102950
v -0.721232 2.711150 0.105031
v -0.658242 2.756912 0.106804
v -0.595928 2.795149 0.108285
v -0.534222 2.826299 0.109492
v -0.473056 2.850802 0.110441
v -0.412363 2.869097 0.111150
v -0.352075 2.881621 0.111635
v -0.292124 2.888814 0.111914
v -0.232444 2.891114 0.112003
v -0.152810 2.885836 0.111798
v -0.077177 2.870351 0.111198
v -0.006103 2.845181 0.110223
v 0.059856 2.810850 0.108893
v 0.120141 2.767881 0.107229
v 0.174196 2.716796 0.105250
v 0.221463 2.658120 0.102977
v 0.261386 2.592374 0.100430
v 0.293407 2.520082 0.097629
v 0.316969 2.441767 0.094595
v 0.331514 2.357952 0.091348
v 0.336487 2.269160 0.087908
v 0.334866 2.202124 0.085311
v 0.330003 2.139001 0.082866
v 0.321899 2.079051 0.080543
v 0.310553 2.021530 0.078315
v 0.295965 1.965697 0.076152
v 0.278135 1.910808 0.074025
v 0.257064 1.856121 0.071907
v 0.232750 1.800895 0.069767
v 0.205195 1.744386 0.067578
v 0.174398 1.685853 0.065311
v 0.140360 1.624553 0.062936
v 0.103079 1.559744 0.060425
v 0.028122 1.437116 0.055674
v -0.054890 1.310404 0.050766
v -0.144688 1.180589 0.045736
v -0.240008 1.048648 0.040625
v -0.339583 0.915559 0.035469
v -0.442146 0.782301 0.030307
v -0.546432 0.649854 0.025176
v -0.651173 0.519195 0.020114
v -0.755104 0.391303 0.015159
v -0.856958 0.267156 0.010350
v -0.955469 0.147733 0.005723
v -1.049371 0.034013 0.001318
v -1.049371 0.000000 0.000000
v 1.051298 0.000000 0.000000
vn 0.0000 -0.0387 0.9993
usemtl Material
s off
f 27//1 25//1 26//1
f 28//1 25//1 27//1
f 29//1 25//1 28//1
f 29//1 24//1 25//1
f 30//1 24//1 29//1
f 30//1 23//1 24//1
f 31//1 23//1 30//1
f 32//1 23//1 31//1
f 32//1 22//1 23//1
f 33//1 22//1 32//1
f 34//1 22//1 33//1
f 34//1 21//1 22//1
f 35//1 21//1 34//1
f 36//1 21//1 35//1
f 36//1 20//1 21//1
f 37//1 20//1 36//1
f 38//1 20//1 37//1
f 38//1 19//1 20//1
f 39//1 40//1 38//1
f 40//1 41//1 38//1
f 41//1 42//1 38//1
f 42//1 43//1 38//1
f 43//1 44//1 38//1
f 44//1 45//1 38//1
f 45//1 46//1 38//1
f 46//1 47//1 38//1
f 47//1 48//1 38//1
f 48//1 49//1 38//1
f 49//1 50//1 38//1
f 50//1 19//1 38//1
f 50//1 51//1 19//1
f 51//1 18//1 19//1
f 52//1 18//1 51//1
f 53//1 18//1 52//1
f 54//1 18//1 53//1
f 54//1 17//1 18//1
f 55//1 17//1 54//1
f 56//1 17//1 55//1
f 57//1 17//1 56//1
f 57//1 16//1 17//1
f 58//1 16//1 57//1
f 59//1 16//1 58//1
f 59//1 15//1 16//1
f 60//1 15//1 59//1
f 61//1 15//1 60//1
f 61//1 14//1 15//1
f 62//1 14//1 61//1
f 63//1 14//1 62//1
f 63//1 13//1 14//1
f 64//1 13//1 63//1
f 65//1 13//1 64//1
f 65//1 12//1 13//1
f 66//1 12//1 65//1
f 67//1 12//1 66//1
f 67//1 11//1 12//1
f 68//1 11//1 67//1
f 69//1 11//1 68//1
f 69//1 10//1 11//1
f 70//1 10//1 69//1
f 71//1 10//1 70//1
f 72//1 10//1 71//1
f 72//1 9//1 10//1
f 73//1 9//1 72//1
f 74//1 9//1 73//1
f 74//1 8//1 9//1
f 75//1 8//1 74//1
f 76//1 8//1 75//1
f 76//1 7//1 8//1
f 77//1 7//1 76//1
f 77//1 6//1 7//1
f 78//1 6//1 77//1
f 78//1 5//1 6//1
f 79//1 5//1 78//1
f 80//1 5//1 79//1
f 80//1 4//1 5//1
f 81//1 4//1 80//1
f 81//1 3//1 4//1
f 82//1 3//1 81//1
f 82//1 2//1 3//1
f 83//1 2//1 82//1
f 84//1 2//1 83//1
f 84//1 1//1 2//1
f 84//1 89//1 1//1
f 85//1 89//1 84//1
f 86//1 89//1 85//1
f 87//1 89//1 86//1
f 88//1 89//1 87//1
