# Blender v2.79 (sub 0) OBJ File: ''
# www.blender.org
mtllib 4.mtl
o Text
v 0.720637 3.357579 0.130074
v 0.516405 3.357579 0.130074
v -1.161212 1.307075 0.050637
v -1.161212 1.088419 0.042166
v 0.244096 1.088419 0.042166
v 0.244096 0.000000 0.000000
v 0.720637 0.000000 0.000000
v 0.720637 1.088419 0.042166
v 1.075611 1.088419 0.042166
v 1.075611 1.516013 0.058731
v 0.720637 1.516013 0.058731
v 0.234371 2.458662 0.095249
v 0.244096 2.458662 0.095249
v 0.244096 1.516013 0.058731
v -0.524204 1.516013 0.058731
vn 0.0000 -0.0387 0.9993
vn 0.0000 0.0000 1.0000
usemtl Material
s off
f 3//1 1//1 2//1
f 3//1 12//1 1//1
f 12//1 13//1 1//1
f 13//1 11//1 1//1
f 3//1 15//1 12//1
f 14//1 11//1 13//1
f 3//1 14//1 15//1
f 3//1 11//1 14//1
f 3//1 10//1 11//1
f 3//1 9//1 10//1
f 4//1 9//1 3//1
f 5//2 9//2 4//2
f 6//1 8//1 5//1
f 8//2 9//2 5//2
f 6//1 7//1 8//1
