# Blender v2.79 (sub 0) OBJ File: ''
# www.blender.org
mtllib 5.mtl
o Text
v 0.749813 3.313848 0.128380
v -0.723573 3.313848 0.128380
v -0.723573 1.588898 0.061555
v -0.547482 1.622245 0.062846
v -0.384222 1.635801 0.063372
v -0.234268 1.631035 0.063187
v -0.098091 1.609414 0.062349
v 0.023836 1.572406 0.060916
v 0.131039 1.521479 0.058943
v 0.223047 1.458101 0.056487
v 0.299386 1.383739 0.053607
v 0.359584 1.299862 0.050357
v 0.403168 1.207938 0.046796
v 0.429665 1.109433 0.042980
v 0.438603 1.005816 0.038966
v 0.432263 0.925668 0.035861
v 0.413817 0.848506 0.032871
v 0.384126 0.775089 0.030027
v 0.344051 0.706177 0.027358
v 0.294454 0.642529 0.024892
v 0.236194 0.584904 0.022659
v 0.170135 0.534061 0.020690
v 0.097136 0.490761 0.019012
v 0.018059 0.455760 0.017656
v -0.066236 0.429820 0.016651
v -0.154886 0.413700 0.016027
v -0.247032 0.408157 0.015812
v -0.307813 0.409875 0.015879
v -0.368576 0.415018 0.016078
v -0.429306 0.423569 0.016409
v -0.489985 0.435512 0.016872
v -0.550597 0.450828 0.017465
v -0.611124 0.469502 0.018189
v -0.671550 0.491517 0.019042
v -0.731857 0.516855 0.020023
v -0.792030 0.545500 0.021133
v -0.852051 0.577435 0.022370
v -0.911903 0.612644 0.023734
v -0.971569 0.651108 0.025224
v -0.971569 0.160347 0.006212
v -0.900992 0.125710 0.004870
v -0.832442 0.094616 0.003665
v -0.765513 0.066963 0.002594
v -0.699800 0.042651 0.001652
v -0.634897 0.021579 0.000836
v -0.570399 0.003644 0.000141
v -0.505901 -0.011253 -0.000436
v -0.440998 -0.023215 -0.000899
v -0.375285 -0.032343 -0.001253
v -0.308356 -0.038737 -0.001501
v -0.239806 -0.042500 -0.001646
v -0.169230 -0.043731 -0.001694
v -0.016121 -0.034581 -0.001340
v 0.128901 -0.007783 -0.000302
v 0.264839 0.035683 0.001382
v 0.390697 0.094841 0.003674
v 0.505478 0.168710 0.006536
v 0.608188 0.256313 0.009930
v 0.697829 0.356671 0.013818
v 0.773406 0.468805 0.018162
v 0.833922 0.591737 0.022924
v 0.878381 0.724488 0.028067
v 0.905787 0.866080 0.033552
v 0.915143 1.015534 0.039342
v 0.905716 1.165441 0.045150
v 0.877818 1.308177 0.050679
v 0.832022 1.442444 0.055881
v 0.768903 1.566942 0.060704
v 0.689035 1.680373 0.065098
v 0.592992 1.781436 0.069014
v 0.481348 1.868834 0.072399
v 0.354677 1.941266 0.075205
v 0.213553 1.997435 0.077381
v 0.058550 2.036040 0.078877
v -0.109758 2.055782 0.079642
v -0.290796 2.055363 0.079626
v -0.290796 2.886255 0.111815
v 0.749813 2.886255 0.111815
vn -0.0000 -0.0387 0.9993
usemtl Material
s off
f 3//1 77//1 2//1
f 77//1 1//1 2//1
f 77//1 78//1 1//1
f 3//1 76//1 77//1
f 76//1 74//1 75//1
f 3//1 74//1 76//1
f 3//1 73//1 74//1
f 3//1 72//1 73//1
f 3//1 71//1 72//1
f 3//1 4//1 71//1
f 4//1 70//1 71//1
f 4//1 5//1 70//1
f 5//1 69//1 70//1
f 5//1 6//1 69//1
f 6//1 68//1 69//1
f 7//1 68//1 6//1
f 8//1 68//1 7//1
f 9//1 68//1 8//1
f 9//1 67//1 68//1
f 10//1 67//1 9//1
f 11//1 67//1 10//1
f 11//1 66//1 67//1
f 12//1 66//1 11//1
f 12//1 65//1 66//1
f 13//1 65//1 12//1
f 14//1 65//1 13//1
f 14//1 64//1 65//1
f 15//1 64//1 14//1
f 15//1 63//1 64//1
f 16//1 63//1 15//1
f 17//1 63//1 16//1
f 17//1 62//1 63//1
f 18//1 62//1 17//1
f 19//1 62//1 18//1
f 19//1 61//1 62//1
f 20//1 61//1 19//1
f 40//1 38//1 39//1
f 21//1 61//1 20//1
f 40//1 37//1 38//1
f 21//1 60//1 61//1
f 22//1 60//1 21//1
f 40//1 36//1 37//1
f 40//1 35//1 36//1
f 23//1 60//1 22//1
f 40//1 34//1 35//1
f 40//1 33//1 34//1
f 24//1 60//1 23//1
f 40//1 32//1 33//1
f 24//1 59//1 60//1
f 25//1 59//1 24//1
f 40//1 31//1 32//1
f 40//1 30//1 31//1
f 26//1 59//1 25//1
f 40//1 29//1 30//1
f 40//1 28//1 29//1
f 27//1 59//1 26//1
f 40//1 27//1 28//1
f 40//1 59//1 27//1
f 40//1 58//1 59//1
f 40//1 57//1 58//1
f 40//1 56//1 57//1
f 41//1 56//1 40//1
f 42//1 56//1 41//1
f 42//1 55//1 56//1
f 43//1 55//1 42//1
f 44//1 55//1 43//1
f 45//1 55//1 44//1
f 45//1 54//1 55//1
f 46//1 54//1 45//1
f 47//1 54//1 46//1
f 47//1 53//1 54//1
f 48//1 53//1 47//1
f 49//1 53//1 48//1
f 50//1 53//1 49//1
f 50//1 52//1 53//1
f 51//1 52//1 50//1
