# Blender v2.79 (sub 0) OBJ File: ''
# www.blender.org
mtllib 6.mtl
o Text
v 0.326761 3.357579 0.130074
v 0.119837 3.209214 0.124326
v -0.070423 3.051349 0.118210
v -0.243765 2.884813 0.111759
v -0.399936 2.710431 0.105003
v -0.538682 2.529030 0.097976
v -0.659750 2.341438 0.090708
v -0.762888 2.148480 0.083233
v -0.847841 1.950984 0.075582
v -0.914356 1.749777 0.067787
v -0.962181 1.545684 0.059880
v -0.991061 1.339533 0.051894
v -1.000744 1.132151 0.043860
v -0.991861 0.962029 0.037269
v -0.965738 0.802097 0.031074
v -0.923170 0.653234 0.025307
v -0.864950 0.516315 0.020002
v -0.791872 0.392219 0.015195
v -0.704730 0.281823 0.010918
v -0.604317 0.186004 0.007206
v -0.491426 0.105639 0.004092
v -0.366851 0.041605 0.001612
v -0.231386 -0.005219 -0.000202
v -0.085824 -0.033957 -0.001315
v 0.069041 -0.043731 -0.001694
v 0.199615 -0.034528 -0.001338
v 0.325478 -0.007761 -0.000301
v 0.445365 0.035304 0.001368
v 0.558008 0.093401 0.003618
v 0.662141 0.165266 0.006402
v 0.756499 0.249632 0.009671
v 0.839814 0.345235 0.013375
v 0.910821 0.450809 0.017464
v 0.968253 0.565088 0.021892
v 1.010843 0.686808 0.026607
v 1.037326 0.814703 0.031562
v 1.046435 0.947508 0.036707
v 1.038283 1.081876 0.041912
v 1.014445 1.209782 0.046867
v 0.975851 1.330231 0.051534
v 0.923428 1.442228 0.055872
v 0.858106 1.544776 0.059845
v 0.780813 1.636881 0.063413
v 0.692477 1.717546 0.066538
v 0.594028 1.785778 0.069182
v 0.486394 1.840580 0.071305
v 0.370503 1.880956 0.072869
v 0.247285 1.905912 0.073836
v 0.117667 1.914452 0.074167
v 0.063970 1.913074 0.074113
v 0.012264 1.909098 0.073959
v -0.037482 1.902760 0.073714
v -0.085304 1.894296 0.073386
v -0.131235 1.883943 0.072985
v -0.175308 1.871936 0.072519
v -0.217558 1.858512 0.071999
v -0.258018 1.843907 0.071434
v -0.296723 1.828357 0.070831
v -0.333705 1.812098 0.070201
v -0.368999 1.795367 0.069553
v -0.402637 1.778400 0.068896
v -0.362954 1.894074 0.073377
v -0.312498 2.009765 0.077859
v -0.252047 2.124680 0.082311
v -0.182377 2.238026 0.086702
v -0.104265 2.349010 0.091002
v -0.018487 2.456840 0.095179
v 0.074179 2.560721 0.099203
v 0.172957 2.659861 0.103044
v 0.277071 2.753467 0.106670
v 0.385744 2.840747 0.110052
v 0.498198 2.920907 0.113157
v 0.613659 2.993154 0.115956
v -0.504753 1.287639 0.049884
v -0.454396 1.319661 0.051124
v -0.407432 1.347837 0.052216
v -0.363204 1.372368 0.053166
v -0.321053 1.393458 0.053983
v -0.280320 1.411308 0.054675
v -0.240346 1.426121 0.055248
v -0.200474 1.438100 0.055713
v -0.160045 1.447447 0.056075
v -0.118400 1.454364 0.056343
v -0.074881 1.459054 0.056524
v -0.028829 1.461720 0.056628
v 0.020414 1.462564 0.056660
v 0.097623 1.458093 0.056487
v 0.170864 1.445017 0.055981
v 0.239614 1.423843 0.055160
v 0.303349 1.395077 0.054046
v 0.361546 1.359225 0.052657
v 0.413682 1.316793 0.051013
v 0.459232 1.268287 0.049134
v 0.497675 1.214214 0.047039
v 0.528486 1.155079 0.044748
v 0.551142 1.091389 0.042281
v 0.565119 1.023649 0.039657
v 0.569895 0.952367 0.036895
v 0.565502 0.873270 0.033831
v 0.552583 0.799016 0.030954
v 0.531525 0.729991 0.028280
v 0.502718 0.666585 0.025824
v 0.466549 0.609185 0.023600
v 0.423407 0.558179 0.021624
v 0.373680 0.513956 0.019911
v 0.317757 0.476903 0.018475
v 0.256025 0.447409 0.017333
v 0.188874 0.425861 0.016498
v 0.116691 0.412648 0.015986
v 0.039865 0.408157 0.015812
v -0.045792 0.415069 0.016080
v -0.129135 0.435512 0.016872
v -0.208663 0.469047 0.018171
v -0.282872 0.515236 0.019960
v -0.350260 0.573639 0.022223
v -0.409323 0.643820 0.024942
v -0.458561 0.725337 0.028100
v -0.496469 0.817754 0.031680
v -0.521545 0.920632 0.035666
v -0.532286 1.033531 0.040039
v -0.527189 1.156013 0.044784
vn 0.0000 -0.0387 0.9993
usemtl Material
s off
f 2//1 73//1 1//1
f 3//1 73//1 2//1
f 4//1 73//1 3//1
f 4//1 72//1 73//1
f 4//1 71//1 72//1
f 5//1 71//1 4//1
f 5//1 70//1 71//1
f 5//1 69//1 70//1
f 6//1 69//1 5//1
f 6//1 68//1 69//1
f 6//1 67//1 68//1
f 7//1 67//1 6//1
f 7//1 66//1 67//1
f 7//1 65//1 66//1
f 8//1 65//1 7//1
f 8//1 64//1 65//1
f 9//1 64//1 8//1
f 9//1 63//1 64//1
f 9//1 62//1 63//1
f 10//1 62//1 9//1
f 50//1 48//1 49//1
f 51//1 48//1 50//1
f 52//1 48//1 51//1
f 52//1 47//1 48//1
f 53//1 47//1 52//1
f 54//1 47//1 53//1
f 10//1 61//1 62//1
f 55//1 47//1 54//1
f 55//1 46//1 47//1
f 56//1 46//1 55//1
f 57//1 46//1 56//1
f 58//1 46//1 57//1
f 58//1 45//1 46//1
f 59//1 45//1 58//1
f 60//1 45//1 59//1
f 61//1 45//1 60//1
f 61//1 44//1 45//1
f 10//1 44//1 61//1
f 11//1 44//1 10//1
f 11//1 43//1 44//1
f 11//1 42//1 43//1
f 12//1 83//1 11//1
f 83//1 84//1 11//1
f 84//1 42//1 11//1
f 84//1 85//1 42//1
f 85//1 86//1 42//1
f 86//1 41//1 42//1
f 87//1 41//1 86//1
f 88//1 41//1 87//1
f 12//1 82//1 83//1
f 12//1 81//1 82//1
f 89//1 41//1 88//1
f 89//1 40//1 41//1
f 12//1 80//1 81//1
f 12//1 79//1 80//1
f 90//1 40//1 89//1
f 12//1 78//1 79//1
f 91//1 40//1 90//1
f 12//1 77//1 78//1
f 12//1 76//1 77//1
f 92//1 40//1 91//1
f 12//1 75//1 76//1
f 13//1 75//1 12//1
f 92//1 39//1 40//1
f 13//1 74//1 75//1
f 93//1 39//1 92//1
f 13//1 121//1 74//1
f 94//1 39//1 93//1
f 95//1 39//1 94//1
f 95//1 38//1 39//1
f 13//1 120//1 121//1
f 96//1 38//1 95//1
f 14//1 120//1 13//1
f 97//1 38//1 96//1
f 97//1 37//1 38//1
f 14//1 119//1 120//1
f 98//1 37//1 97//1
f 15//1 119//1 14//1
f 99//1 37//1 98//1
f 99//1 36//1 37//1
f 15//1 118//1 119//1
f 100//1 36//1 99//1
f 15//1 117//1 118//1
f 100//1 35//1 36//1
f 16//1 117//1 15//1
f 101//1 35//1 100//1
f 102//1 35//1 101//1
f 16//1 116//1 117//1
f 102//1 34//1 35//1
f 103//1 34//1 102//1
f 17//1 116//1 16//1
f 17//1 115//1 116//1
f 104//1 34//1 103//1
f 17//1 114//1 115//1
f 104//1 33//1 34//1
f 105//1 33//1 104//1
f 18//1 114//1 17//1
f 18//1 113//1 114//1
f 106//1 33//1 105//1
f 107//1 33//1 106//1
f 18//1 112//1 113//1
f 107//1 32//1 33//1
f 108//1 32//1 107//1
f 18//1 111//1 112//1
f 109//1 32//1 108//1
f 18//1 110//1 111//1
f 110//1 32//1 109//1
f 18//1 32//1 110//1
f 19//1 32//1 18//1
f 19//1 31//1 32//1
f 20//1 31//1 19//1
f 20//1 30//1 31//1
f 21//1 30//1 20//1
f 21//1 29//1 30//1
f 22//1 29//1 21//1
f 22//1 28//1 29//1
f 23//1 28//1 22//1
f 23//1 27//1 28//1
f 24//1 27//1 23//1
f 24//1 26//1 27//1
f 25//1 26//1 24//1
